<?xml version="1.0" encoding="UTF-8"?>
<svg width="33px" height="25px" viewBox="0 0 33 25" version="1.1" xmlns="http://www.w3.org/2000/svg" xmlns:xlink="http://www.w3.org/1999/xlink">
    <!-- Generator: Sketch 46.2 (44496) - http://www.bohemiancoding.com/sketch -->
    <title>Icons/Product/Verification</title>
    <desc>Created with Sketch.</desc>
    <defs></defs>
    <g id="Symbols" stroke="none" stroke-width="1" fill="none" fill-rule="evenodd">
        <g id="Icons/Product/Verification" stroke-width="1.26" stroke="#F39829">
            <g id="Page-1">
                <path d="M12.2190081,12.4196429 C12.1209,12.4821429 12.0227919,12.5535714 11.9157649,12.6071429 L11.9068459,12.6071429 C11.1041432,13.0892857 10.1765757,13.3660714 9.16873784,13.3660714 C6.18981892,13.3660714 3.78171081,10.9464286 3.78171081,7.96428571 C3.78171081,4.99107143 6.18981892,2.57142857 9.16873784,2.57142857 C10.0873865,2.57142857 10.9436027,2.80357143 11.6927919,3.20535714" id="Stroke-1"></path>
                <path d="M5.31576486,11.8660714 L1.7481973,15.0535714 C1.16846757,15.5625 0.704683784,16.6160714 0.713602703,17.4017857 L0.749278378,19.9553571 C0.758197297,20.7410714 1.40035946,21.3660714 2.18522432,21.3571429 L6.29684595,21.3035714" id="Stroke-3"></path>
                <path d="M22.0922514,3.05357143 C22.7700892,2.75 23.5281973,2.57142857 24.3309,2.57142857 C27.3098189,2.57142857 29.717927,4.99107143 29.717927,7.96428571 C29.717927,9.46428571 29.1114405,10.8214286 28.1214405,11.8035714 C27.1492784,12.7678571 25.8114405,13.3660714 24.3309,13.3660714 C23.7065757,13.3660714 23.1000892,13.2589286 22.5471162,13.0535714 L22.5381973,13.0535714 L22.5292784,13.0535714 C22.1814405,12.9285714 21.8425216,12.7678571 21.5303595,12.5714286" id="Stroke-5"></path>
                <path d="M27.6933324,21.2142857 L31.4481973,21.1607143 C32.2330622,21.1517857 32.8573865,20.5089286 32.8395486,19.7232143 L32.8127919,17.1696429 C32.7949541,16.3839286 32.3044135,15.3482143 31.7068459,14.8482143 L28.1214405,11.8035714 L27.9698189,11.6785714" id="Stroke-7"></path>
                <path d="M21.7354946,12.375 L22.5292784,13.0535714 L22.5381973,13.0535714 L26.2752243,16.2232143 C27.0333324,16.8571429 27.6576568,18.1696429 27.6665757,19.1607143 L27.6933324,21.2142857 L27.6933324,21.2410714 L27.7111703,22.3928571 C27.7290081,23.3928571 26.9441432,24.1964286 25.9541432,24.2053571 L8.12522432,24.4553571 C7.13522432,24.4732143 6.3236027,23.6785714 6.31468378,22.6875 L6.29684595,21.3035714 L6.29684595,21.2767857 L6.27008919,19.4553571 C6.25225135,18.4553571 6.8409,17.1339286 7.58117027,16.4821429 L11.9068459,12.6071429 L11.9157649,12.6071429 L12.013873,12.5178571 L12.0763054,12.4642857" id="Stroke-9"></path>
                <path d="M16.9549541,14.350625 C20.7160622,14.350625 23.7654405,11.2979464 23.7654405,7.53276786 C23.7654405,3.76669643 20.7160622,0.714017857 16.9549541,0.714017857 C13.1938459,0.714017857 10.1444676,3.76669643 10.1444676,7.53276786 C10.1444676,11.2979464 13.1938459,14.350625 16.9549541,14.350625 Z" id="Stroke-11"></path>
                <polyline id="Stroke-13" points="14.348258 7.52014903 16.1281023 9.30191964 19.7307528 5.6946875"></polyline>
            </g>
        </g>
    </g>
</svg>